Coordinates
version=1
nRows=13
nColumns=22
inDegrees=yes

Units are S.I. units (second, meters, Newtons, ...)
If the header above contains a line with 'inDegrees', this indicates whether rotational values are in degrees (yes) or radians (no).

endheader
time	pelvis_tilt	pelvis_list	pelvis_rotation	pelvis_tx	pelvis_ty	pelvis_tz	hip_flexion_r	hip_adduction_r	hip_rotation_r	knee_angle_r	ankle_angle_r	subtalar_angle_r	hip_flexion_l	hip_adduction_l	hip_rotation_l	knee_angle_l	ankle_angle_l	subtalar_angle_l	lumbar_extension	lumbar_bending	lumbar_rotation
      1.63000000	     -6.28736918	     -2.00410713	    -35.02996777	     -0.90998898	      0.88553029	     -0.41758132	     34.88434955	     -0.28578248	     -3.62479680	    -48.26012670	      9.58594675	      0.60991784	     -2.04733590	     -1.56572881	      1.55299416	     -6.04877250	     18.99230814	     -2.55334680	     -3.72297604	      4.13191251	      5.12820000
      1.64000000	     -6.29618490	     -2.17845398	    -34.80947950	     -0.90711238	      0.88534366	     -0.41597181	     35.01740150	     -0.16402638	     -3.49863795	    -47.28131934	      9.13725799	      1.10397346	     -2.35001408	     -1.73212394	      1.70555746	     -6.06329430	     19.12629218	     -2.53055603	     -3.84636368	      4.27761820	      4.95676788
      1.65000000	     -6.29036352	     -2.31872026	    -34.58987676	     -0.90415070	      0.88505874	     -0.41429337	     35.12525953	     -0.09237757	     -3.36957891	    -46.21614025	      8.67213687	      1.57262766	     -2.65362057	     -1.86262427	      1.83090569	     -6.07091052	     19.27564287	     -2.49759425	     -3.96091096	      4.38314756	      4.79853549
      1.66000000	     -6.24523153	     -2.43294813	    -34.37019585	     -0.90109736	      0.88471652	     -0.41256968	     35.17675087	     -0.07678316	     -3.22783430	    -45.06464466	      8.23493408	      2.10692733	     -2.97297069	     -1.94674839	      1.95754876	     -6.09948562	     19.44668061	     -2.43506535	     -4.10037458	      4.43998955	      4.67509734
      1.67000000	     -6.22357608	     -2.52047758	    -34.15257868	     -0.89794326	      0.88425532	     -0.41074630	     35.22456711	     -0.07871349	     -3.09770599	    -43.82869104	      7.79639024	      2.46145182	     -3.26729118	     -2.02617455	      2.04999398	     -6.11919672	     19.62437051	     -2.38443620	     -4.19546887	      4.49048050	      4.51430138
      1.68000000	     -6.14819987	     -2.59194838	    -33.93608897	     -0.89467443	      0.88377716	     -0.40887511	     35.19353428	     -0.13471818	     -2.95399820	    -42.51643761	      7.42191649	      2.94954219	     -3.59855743	     -2.05770054	      2.16383045	     -6.16120303	     19.81388957	     -2.28708988	     -4.33375707	      4.49458166	      4.41247513
      1.69000000	     -6.10236792	     -2.64851480	    -33.71752087	     -0.89127043	      0.88319611	     -0.40690524	     35.14888100	     -0.19374069	     -2.82515205	    -41.12447922	      7.06960868	      3.27379953	     -3.90338409	     -2.09588556	      2.26381262	     -6.20514274	     20.01377478	     -2.21701458	     -4.42500735	      4.51118337	      4.29006053
      1.70000000	     -6.05550095	     -2.68822747	    -33.50743448	     -0.88773396	      0.88254419	     -0.40482790	     35.07397049	     -0.27157633	     -2.70620888	    -39.67115526	      6.74443625	      3.53324140	     -4.21061743	     -2.11873510	      2.36376436	     -6.25303452	     20.22379849	     -2.15463046	     -4.49829781	      4.51474969	      4.18192388
      1.71000000	     -6.01023667	     -2.71637895	    -33.30315981	     -0.88407323	      0.88182719	     -0.40264237	     34.96798221	     -0.35800519	     -2.59170861	    -38.16172560	      6.44234512	      3.74483647	     -4.51800059	     -2.13351865	      2.46425991	     -6.30835795	     20.44690278	     -2.10041958	     -4.55640481	      4.51528241	      4.07811933
      1.72000000	     -5.96130195	     -2.73234067	    -33.11039467	     -0.88030489	      0.88104911	     -0.40033222	     34.83415245	     -0.45353554	     -2.48901237	    -36.61221020	      6.17234750	      3.92164542	     -4.82519191	     -2.13694231	      2.57262593	     -6.38318883	     20.68176879	     -2.05196564	     -4.60476397	      4.50194788	      4.00113680
      1.73000000	     -5.91960812	     -2.74020458	    -32.93010443	     -0.87643074	      0.88020520	     -0.39791054	     34.68311264	     -0.54725264	     -2.39992681	    -35.02665083	      5.90295458	      4.05741023	     -5.12511013	     -2.13843417	      2.68105800	     -6.47702297	     20.93481191	     -2.01722228	     -4.63671115	      4.49237825	      3.93443649
      1.74000000	     -5.89030257	     -2.73733006	    -32.76641807	     -0.87245379	      0.87928680	     -0.39535807	     34.52362668	     -0.63289441	     -2.32187410	    -33.41673290	      5.63456935	      4.15643177	     -5.40918564	     -2.13792734	      2.78416179	     -6.59437921	     21.20545814	     -1.99885873	     -4.64453445	      4.48358660	      3.88071384
      1.75000000	     -5.86267019	     -2.73557833	    -32.62166121	     -0.86838814	      0.87831902	     -0.39266668	     34.34448914	     -0.70485711	     -2.26142638	    -31.79252206	      5.35505767	      4.24681892	     -5.69617528	     -2.14145118	      2.88229129	     -6.73175983	     21.49582239	     -1.98971197	     -4.64954100	      4.47760299	      3.84672812
